<svg xmlns="http://www.w3.org/2000/svg" xmlns:xlink="http://www.w3.org/1999/xlink" width="16" height="16" version="1.1" viewBox="0 0 16 16"><title>clock</title><desc>Created with Sketch.</desc><g id="buffer-web" fill="none" fill-rule="evenodd" stroke="none" stroke-width="1"><g id="clock" fill="#000"><path id="icon-clock" d="M8,16 C12.418278,16 16,12.418278 16,8 C16,3.581722 12.418278,0 8,0 C3.581722,0 0,3.581722 0,8 C0,12.418278 3.581722,16 8,16 Z M8,14 C11.3137085,14 14,11.3137085 14,8 C14,4.6862915 11.3137085,2 8,2 C4.6862915,2 2,4.6862915 2,8 C2,11.3137085 4.6862915,14 8,14 Z"/><rect id="hand-hour" width="2" height="6" x="7" y="3" rx="1"/><rect id="hand-minute" width="2" height="6" x="8.418" y="6.578" rx="1" transform="translate(9.418427, 9.578427) rotate(-225.000000) translate(-9.418427, -9.578427)"/></g></g></svg>