<svg xmlns="http://www.w3.org/2000/svg" xmlns:xlink="http://www.w3.org/1999/xlink" width="16" height="14" version="1.1" viewBox="0 0 16 14"><title>Group</title><desc>Created with Sketch.</desc><g id="Page-1" fill="none" fill-rule="evenodd" stroke="none" stroke-width="1"><g id="Artboard" fill="#000" fill-rule="nonzero" transform="translate(0.000000, -1.000000)"><g id="Group" transform="translate(0.000000, 1.000000)"><path id="Combined-Shape" d="M10.0030683,3 L1.32719676,3 C0.598808254,3 0,3.5951808 0,4.32937352 L0,12.3372931 C0,13.0703241 0.594206228,13.6666667 1.32719676,13.6666667 L12.0061366,13.6666667 C12.7345251,13.6666667 13.3333333,13.0714859 13.3333333,12.3372931 L13.3333333,6.33135343 L13.3333333,8.33333333 L12,8.33333333 L12,12.3333333 L1.33333333,12.3333333 L1.33333333,4.33333333 L8,4.33333333 L8,3 L10.0030683,3 Z"/><rect id="Rectangle-5" width="1.333" height="6.667" x="12" y=".333" rx=".667"/><rect id="Rectangle-6" width="6.667" height="1.333" x="9.333" y="3" rx=".667"/></g></g></g></svg>