<svg xmlns="http://www.w3.org/2000/svg" xmlns:xlink="http://www.w3.org/1999/xlink" width="16" height="16" version="1.1" viewBox="0 0 16 16"><title>shuffle</title><desc>Created with Sketch.</desc><g id="buffer-web" fill="none" fill-rule="evenodd" stroke="none" stroke-width="1"><g id="shuffle"><g id="icon-shuffle" transform="translate(1.000000, 1.000000)"><path id="arrow-head-1" fill="#000" d="M12,8.99077797 C12,8.44358641 12.3210526,8.32105255 12.7109581,8.71095812 L14.6440798,10.6440798 C14.8406491,10.8406491 14.838707,11.161293 14.6440798,11.3559202 L12.7109581,13.2890419 C12.3183068,13.6816932 12,13.5490248 12,13.009222 L12,8.99077797 Z"/><path id="arrow-head-2" fill="#000" d="M12,0.990777969 C12,0.443586406 12.3210526,0.321052551 12.7109581,0.710958123 L14.6440798,2.6440798 C14.8406491,2.8406491 14.838707,3.16129303 14.6440798,3.3559202 L12.7109581,5.28904188 C12.3183068,5.68169321 12,5.54902482 12,5.00922203 L12,0.990777969 Z"/><polyline id="arrow-1" stroke="#000" stroke-linecap="round" stroke-linejoin="round" stroke-width="2" points="12 3.001 10 3 2 11 0 11" transform="translate(6.000000, 7.000000) scale(1, -1) translate(-6.000000, -7.000000)"/><polyline id="arrow-2-top" stroke="#000" stroke-linecap="round" stroke-linejoin="round" stroke-width="2" points="8.5 4.5 10 3 13 3"/><polyline id="arrow-2-bottom" stroke="#000" stroke-linecap="round" stroke-linejoin="round" stroke-width="2" points="0 11 2 11 3.5 9.5"/></g></g></g></svg>